<svg width="40" height="47" viewBox="0 0 40 47" fill="none" xmlns="http://www.w3.org/2000/svg">
<path d="M19.7936 9.89682C19.7936 4.44162 15.3523 0 9.89179 0C4.43626 0 0 4.44137 0 9.89682C0 14.737 7.96247 23.272 9.89682 25.2723C11.8312 23.2727 19.7936 14.7375 19.7936 9.89682ZM5.69497 9.89682C5.69497 7.57759 7.57767 5.69488 9.8969 5.69488C12.2161 5.69488 14.0988 7.5822 14.0988 9.89682C14.0988 12.2161 12.2161 14.0988 9.8969 14.0988C7.57733 14.0988 5.69497 12.2161 5.69497 9.89682Z" fill="#00C2FF"/>
<path d="M1.39914 24.6293L9.99567 30.2257C10.0238 30.2444 10.0566 30.2634 10.0847 30.2775C10.1083 30.2915 10.1316 30.2961 10.1552 30.3056H10.1646C10.1882 30.3151 10.2164 30.3197 10.2396 30.3197H10.2491C10.2727 30.3243 10.3009 30.3243 10.3241 30.3243H10.3287C10.3569 30.3243 10.385 30.3243 10.4132 30.3197C10.4319 30.3197 10.4509 30.3151 10.4741 30.3056C10.4977 30.301 10.5209 30.2915 10.5445 30.282C10.5822 30.268 10.6195 30.2493 10.6526 30.2257C10.6667 30.2162 10.6808 30.2071 10.6948 30.1976C10.7089 30.1835 10.7276 30.174 10.7417 30.1599L33.0236 9.0995C33.263 8.87419 33.2725 8.49856 33.0471 8.25921C32.8218 8.01982 32.4462 8.01032 32.2069 8.23563L10.2637 28.9867L2.04775 23.6346C1.7707 23.4561 1.40457 23.5314 1.2261 23.8082C1.04336 24.0855 1.12293 24.4517 1.39999 24.6301L1.39914 24.6293Z" fill="#5B5D72"/>
<path d="M29.3434 18.4598C29.3107 18.488 29.2871 18.5207 29.2635 18.5538C29.2494 18.5679 29.2399 18.5866 29.2308 18.6055C29.2213 18.6196 29.2167 18.6291 29.2121 18.6432C29.1885 18.6995 29.1698 18.7604 29.1603 18.8217C29.1603 18.8453 29.1558 18.8685 29.1558 18.8921C29.1558 18.9157 29.1558 18.9438 29.1603 18.9671V18.9858C29.1744 19.0748 29.2072 19.1547 29.2635 19.2297C29.2681 19.2392 29.2776 19.2484 29.2822 19.2579L38.9065 32.934C39.0192 33.0984 39.2072 33.1875 39.3948 33.1875C39.512 33.1875 39.6342 33.1498 39.7377 33.0794C40.0052 32.8918 40.0711 32.5207 39.8831 32.2532L30.5354 18.9719L39.8076 10.2019C40.047 9.97655 40.0565 9.60092 39.8312 9.36157C39.6059 9.12217 39.2303 9.11268 38.9909 9.33799L29.3573 18.4509L29.3434 18.4598Z" fill="#5B5D72"/>
<path d="M26.1744 45.854L11.2919 36.1685C11.2824 36.159 11.2732 36.1544 11.2591 36.1498C11.2451 36.1403 11.2356 36.1357 11.2215 36.1262C11.2074 36.1216 11.1979 36.1121 11.1838 36.1121C11.1602 36.1026 11.1416 36.0935 11.118 36.0886C11.0944 36.0791 11.0662 36.0745 11.043 36.0745H11.0335C11.0099 36.0699 10.9818 36.0699 10.9585 36.0699C10.9303 36.0699 10.9022 36.0699 10.8694 36.0745C10.8508 36.0745 10.8318 36.0791 10.8085 36.0886C10.7849 36.0931 10.7617 36.1026 10.7381 36.1121C10.7005 36.1262 10.6631 36.1449 10.63 36.1685C10.616 36.178 10.6019 36.1871 10.5878 36.1966C10.5737 36.2107 10.5596 36.2202 10.541 36.2343L1.31567 44.9473C1.07628 45.1726 1.06678 45.5483 1.29209 45.7876C1.40933 45.9144 1.56914 45.9753 1.72404 45.9753C1.86944 45.9753 2.01518 45.9235 2.13241 45.8109L11.024 37.4072L25.531 46.8488C25.6296 46.9146 25.7422 46.9473 25.8549 46.9473C26.0474 46.9473 26.24 46.8534 26.3527 46.6752C26.5265 46.4027 26.4516 46.0366 26.1745 45.8535L26.1744 45.854Z" fill="#5B5D72"/>
<path d="M26.2448 22.3615C26.2353 22.3474 26.2261 22.3334 26.212 22.3193C26.2025 22.3052 26.1933 22.2957 26.1793 22.2816C26.1793 22.277 26.1747 22.277 26.1698 22.2721C26.1557 22.258 26.1416 22.244 26.1275 22.2299C26.0712 22.183 26.0103 22.1454 25.9444 22.1218C25.9258 22.1123 25.9068 22.1077 25.8881 22.1031C25.8645 22.0936 25.8364 22.0891 25.8082 22.0891C25.7846 22.0891 25.7614 22.0845 25.7378 22.0845C25.7142 22.0845 25.6861 22.0845 25.6628 22.0891C25.6533 22.0891 25.6392 22.0891 25.6301 22.0936C25.6065 22.0982 25.5832 22.1031 25.5642 22.1123C25.5361 22.1218 25.5079 22.131 25.4797 22.1451C25.4562 22.1591 25.428 22.1732 25.3998 22.1919C25.3812 22.206 25.3622 22.2201 25.3435 22.2387C25.3389 22.2387 25.3389 22.2433 25.334 22.2482L14.6349 32.3571L14.6208 32.3712C14.6067 32.3853 14.5926 32.3994 14.5786 32.418C14.5645 32.4321 14.5504 32.4508 14.5409 32.4698C14.5314 32.4839 14.5222 32.498 14.5127 32.5166C14.5032 32.5307 14.4941 32.5448 14.4892 32.5635C14.4751 32.587 14.4656 32.6152 14.461 32.6434C14.4515 32.6669 14.4469 32.6951 14.4423 32.7233V32.7278C14.4377 32.756 14.4377 32.7796 14.4377 32.8078C14.4377 32.8595 14.4423 32.9063 14.4564 32.9532C14.461 32.9767 14.4705 33 14.48 33.0236C14.5082 33.094 14.5458 33.1644 14.6021 33.2207C14.6349 33.2535 14.668 33.2816 14.7102 33.3098L35.5266 46.8635C35.6298 46.9294 35.7425 46.9621 35.8505 46.9621C36.0431 46.9621 36.2357 46.8681 36.3483 46.69C36.5268 46.4178 36.4515 46.0468 36.1747 45.8683L15.9913 32.7136L25.6533 23.5822L38.9162 42.4227C39.0288 42.587 39.2168 42.6761 39.4045 42.6761C39.5217 42.6761 39.6438 42.6434 39.7473 42.5681C40.0149 42.3755 40.0807 42.0094 39.8927 41.7418L26.2448 22.3615Z" fill="#5B5D72"/>
<path d="M1.39914 31.1408L5.29583 33.6758L1.31463 37.4363C1.07524 37.6616 1.06574 38.0372 1.29105 38.2766C1.40829 38.4033 1.5681 38.4642 1.723 38.4642C1.8684 38.4642 2.01414 38.4125 2.13137 38.2998L6.64769 34.0324L6.65719 34.0229C6.71352 33.9712 6.76035 33.9057 6.78851 33.8353C6.80259 33.8117 6.80718 33.7885 6.81667 33.7649V33.7554C6.82617 33.7318 6.83076 33.7036 6.83534 33.6804V33.6758C6.83992 33.6476 6.83992 33.6241 6.83992 33.5959C6.83992 33.5442 6.83534 33.4973 6.82126 33.4505C6.81667 33.4269 6.80718 33.4037 6.79768 33.3801C6.7836 33.3424 6.76493 33.3051 6.74135 33.272C6.73185 33.2579 6.72268 33.2438 6.71319 33.2298C6.69911 33.2157 6.68961 33.2016 6.67553 33.1829C6.66144 33.1688 6.64736 33.1548 6.6287 33.1407C6.61461 33.1266 6.59595 33.1171 6.57695 33.103C6.57237 33.0984 6.56746 33.0935 6.56287 33.0935L2.03708 30.1452C1.76003 29.9667 1.3939 30.042 1.21542 30.3188C1.04251 30.5961 1.12209 30.9623 1.39914 31.1407L1.39914 31.1408Z" fill="#5B5D72"/>
</svg>
