<svg width="64" height="40" viewBox="0 0 64 40" fill="none" xmlns="http://www.w3.org/2000/svg">
<path d="M61.6484 0H1.83564C0.823646 0 0 0.823626 0 1.83564V38.1644C0 39.1764 0.823626 40 1.83564 40H61.6484C62.6604 40 63.484 39.1764 63.484 38.1644V1.83564C63.484 0.823646 62.6604 0 61.6484 0ZM1.83564 1.69533H61.6484C61.7233 1.69533 61.7887 1.76075 61.7887 1.83563L61.7895 8.4097H1.69425V1.83563C1.69425 1.76075 1.76045 1.69533 1.83533 1.69533H1.83564ZM61.6484 38.3045H1.83564C1.76077 38.3045 1.69535 38.2391 1.69535 38.1642V15.7415H61.7886V38.1642C61.7886 38.2391 61.7224 38.3045 61.6475 38.3045H61.6484Z" fill="#5B5D72"/>
<path d="M56.0735 29.9083C56.0735 32.2894 54.1433 34.2195 51.7631 34.2195C49.382 34.2195 47.4519 32.2893 47.4519 29.9083C47.4519 27.528 49.3821 25.5979 51.7631 25.5979C54.1434 25.5979 56.0735 27.5281 56.0735 29.9083Z" fill="#00C2FF"/>
<path d="M46.8203 29.9083C46.8203 28.5109 47.4043 27.2481 48.3398 26.3481C47.6478 25.8744 46.8108 25.5969 45.9091 25.5969C43.528 25.5969 41.5979 27.5271 41.5979 29.9081C41.5979 32.2892 43.5281 34.2194 45.9091 34.2194C46.8108 34.2194 47.6478 33.9419 48.3398 33.4682C47.4043 32.5689 46.8203 31.3063 46.8203 29.908V29.9083Z" fill="#00C2FF"/>
</svg>
