<svg width="53" height="37" viewBox="0 0 53 37" fill="none" xmlns="http://www.w3.org/2000/svg">
<path d="M14.5 4.5C22.232 4.5 28.5 10.768 28.5 18.5C28.5 26.232 22.232 32.5 14.5 32.5C6.76801 32.5 0.5 26.232 0.499999 18.5C0.499999 10.768 6.76801 4.5 14.5 4.5Z" fill="#00C2FF" stroke="white"/>
<g filter="url(#filter0_d_131_2)">
<ellipse cx="34.5" cy="18.5" rx="14.5" ry="14.5" transform="rotate(-90 34.5 18.5)" fill="#FF1E8A"/>
<path d="M34.5 4.5C42.232 4.5 48.5 10.768 48.5 18.5C48.5 26.232 42.232 32.5 34.5 32.5C26.768 32.5 20.5 26.232 20.5 18.5C20.5 10.768 26.768 4.5 34.5 4.5Z" stroke="white"/>
</g>
<defs>
<filter id="filter0_d_131_2" x="16" y="0" width="37" height="37" filterUnits="userSpaceOnUse" color-interpolation-filters="sRGB">
<feFlood flood-opacity="0" result="BackgroundImageFix"/>
<feColorMatrix in="SourceAlpha" type="matrix" values="0 0 0 0 0 0 0 0 0 0 0 0 0 0 0 0 0 0 127 0" result="hardAlpha"/>
<feOffset/>
<feGaussianBlur stdDeviation="2"/>
<feComposite in2="hardAlpha" operator="out"/>
<feColorMatrix type="matrix" values="0 0 0 0 0 0 0 0 0 0 0 0 0 0 0 0 0 0 0.15 0"/>
<feBlend mode="normal" in2="BackgroundImageFix" result="effect1_dropShadow_131_2"/>
<feBlend mode="normal" in="SourceGraphic" in2="effect1_dropShadow_131_2" result="shape"/>
</filter>
</defs>
</svg>
