<svg width="60" height="60" viewBox="0 0 60 60" fill="none" xmlns="http://www.w3.org/2000/svg">
<path d="M57.5 32.5C40.625 57.5 16.6667 50.2083 6.25 44.375C13.75 56.875 24.9785 57.9185 30 57.5C45 56.25 56.25 45.625 57.5 32.5Z" fill="#D9DEE4" fill-opacity="0.5"/>
<path d="M29.9999 0.00029848C13.4836 0.00029848 0.0258642 13.4517 3.12485e-05 29.9864C-0.0115734 38.149 3.20952 46.0627 8.83931 51.6987C14.187 57.0515 21.2905 60 28.8444 60C29.2475 60 29.6532 59.9919 30.0608 59.9748C46.8484 59.2868 60 46.1154 60 29.9887C60 13.4527 46.5423 0 30.0001 0L29.9999 0.00029848ZM29.9403 57.0854C29.573 57.1006 29.2062 57.1076 28.8424 57.1076C22.862 57.1076 17.1964 55.0453 12.649 51.2601C12.6505 51.2313 12.6576 51.2036 12.6576 51.1738C12.6576 43.5746 17.1148 37.1078 23.7896 34.9077C25.4692 35.7676 27.3648 36.2629 29.3785 36.2629C31.3917 36.2629 33.2884 35.7676 34.9684 34.9077C41.8015 37.1511 46.5443 43.7229 46.5792 51.0912C42.0115 54.6207 36.2626 56.8258 29.9401 57.0856L29.9403 57.0854ZM29.3783 33.3706C24.1834 33.3706 19.9578 29.1465 19.9578 23.9535C19.9578 18.7606 24.1834 14.5365 29.3783 14.5365C34.5732 14.536 38.7988 18.7611 38.7988 23.9535C38.7988 29.1455 34.5732 33.3706 29.3783 33.3706ZM49.3046 48.6941C48.4433 41.7732 44.0416 35.7437 37.7957 32.9135C40.1878 30.6671 41.6913 27.4861 41.6913 23.9539C41.6913 17.1668 36.1674 11.6444 29.3772 11.6444C22.5876 11.6444 17.0632 17.1663 17.0632 23.9539C17.0632 27.488 18.5692 30.6696 20.9633 32.917C14.8941 35.702 10.7386 41.6132 9.92474 48.6382C5.4307 43.6284 2.88228 36.9118 2.89326 29.9899C2.91546 15.0485 15.0756 2.89084 29.9998 2.89084C44.9455 2.89084 57.1064 15.0465 57.1064 29.9873C57.1064 37.2366 54.1507 43.8235 49.3051 48.6925L49.3046 48.6941Z" fill="#5B5D72"/>
<circle cx="29.302" cy="23.7209" r="11.5581" fill="white" stroke="#00C2FF" stroke-width="2"/>
</svg>
