<svg width="40" height="41" viewBox="0 0 40 41" fill="none" xmlns="http://www.w3.org/2000/svg">
<path d="M39.1999 0.00610352H24.7999C24.3599 0.00610352 24 0.366035 24 0.805989C24 1.25398 24.3599 1.60587 24.7999 1.60587H38.4002V15.2062C38.4002 15.6542 38.7601 16.006 39.2001 16.006C39.6481 16.006 39.9999 15.6541 39.9999 15.2062V0.806161C39.9999 0.374238 39.648 0.00627485 39.2001 0.00627485L39.1999 0.00610352Z" fill="#5B5D72"/>
<path d="M0.799958 16.0222C1.24795 16.0222 1.59984 15.6622 1.59984 15.2223V1.62199H15.2001C15.6481 1.62199 16 1.26206 16 0.822102C16 0.374108 15.6481 0.0222168 15.2001 0.0222168H0.80013C0.360176 0.0222168 0.000244141 0.374117 0.000244141 0.822102V15.2221C0.000244141 15.654 0.360176 16.022 0.80013 16.022L0.799958 16.0222Z" fill="#5B5D72"/>
<path d="M0.800057 40.0222H15.2001C15.648 40.0222 15.9999 39.6622 15.9999 39.2223C15.9999 38.7743 15.648 38.4224 15.2001 38.4224H1.59977V24.8221C1.59977 24.3741 1.24787 24.0222 0.799886 24.0222C0.359931 24.0222 0 24.3741 0 24.8221V39.2221C0 39.654 0.359931 40.022 0.799886 40.022L0.800057 40.0222Z" fill="#5B5D72"/>
<path d="M20.0002 7.9978C16.216 7.9978 13.144 11.0698 13.144 14.8539C13.144 18.638 16.216 21.7177 20.0002 21.7177C23.7843 21.7177 26.864 18.6377 26.864 14.8539C26.864 11.0698 23.7843 7.9978 20.0002 7.9978Z" fill="#00C2FF"/>
<path d="M25.0084 22.0859C23.5284 23.1178 21.8004 23.6619 20.0004 23.6619C18.2085 23.6619 16.4724 23.1178 14.9925 22.0859C14.7926 21.9419 14.5284 21.9098 14.2964 21.9817C11.2084 22.9578 9.12842 25.7897 9.12842 29.0298V31.2379C9.12842 31.6859 9.48835 32.0378 9.9283 32.0378L30.0806 32.0382C30.5205 32.0382 30.8805 31.6863 30.8805 31.2383V29.0301C30.8805 25.79 28.8005 22.9581 25.7044 21.9821C25.4724 21.9021 25.2163 21.9419 25.0084 22.0859H25.0084Z" fill="#00C2FF"/>
<path d="M39.2001 24.022C38.7601 24.022 38.4002 24.3739 38.4002 24.8219V38.4221H24.7999C24.3599 38.4221 24 38.774 24 39.222C24 39.662 24.3599 40.0219 24.7999 40.0219H39.1999C39.6479 40.0219 39.9998 39.662 39.9998 39.222V24.822C39.9998 24.374 39.6479 24.0221 39.1999 24.0221L39.2001 24.022Z" fill="#5B5D72"/>
</svg>
